<?xml version="1.0" encoding="UTF-8"?>
<svg version="1.1" xmlns="http://www.w3.org/2000/svg" width="32" height="32">
<path d="M0 0 C0 2.31 0 4.62 0 7 C2.97 7 5.94 7 9 7 C9 9.97 9 12.94 9 16 C11.31 16 13.62 16 16 16 C16.66344497 20.42296645 15.79993531 22.7390338 13.25 26.25 C11.09622132 29.05643889 9.34749422 30.77943352 6 32 C0.48376242 32.66071926 -4.4234205 32.73198334 -9.5 30.375 C-14.3143755 25.80134327 -16.25156236 22.6912538 -16.5 16 C-16.31000458 10.88279006 -15.62833663 7.81930172 -12 4 C-7.90317027 0.61566239 -5.31347397 -0.50604514 0 0 Z M-6.25 9.5 C-8.38591032 12.55130046 -8.59040041 14.43694782 -8.37890625 18.09375 C-8.0758868 20.2072382 -8.0758868 20.2072382 -6.4375 22.5 C-3.03618625 24.59311615 -0.92927257 24.55147685 3 24 C5.98945544 22.40972613 5.98945544 22.40972613 8 20 C8 18.68 8 17.36 8 16 C5.36 16 2.72 16 0 16 C0 13.36 0 10.72 0 8 C-3.89599371 7.63019987 -3.89599371 7.63019987 -6.25 9.5 Z " fill="#2253E5" transform="translate(16,0)"/>
<path d="M0 0 C2.97 0 5.94 0 9 0 C9 2.97 9 5.94 9 9 C6.03 9 3.06 9 0 9 C0 6.03 0 3.06 0 0 Z " fill="#16E5A0" transform="translate(16,7)"/>
</svg>
